<svg width="105" height="96" viewBox="0 0 105 96" fill="none" xmlns="http://www.w3.org/2000/svg">
<g clip-path="url(#clip0_207_2502)">
<path d="M51.9997 3.23474C56.3508 28.6591 76.361 47.8775 100.399 47.8775C100.863 47.8775 101.32 47.853 101.778 47.8407C101.778 47.951 101.772 48.0552 101.772 48.1654C101.314 48.1532 100.863 48.1287 100.399 48.1287C76.3549 48.1287 56.3447 67.3471 51.9997 92.7714C47.6486 67.3471 27.6384 48.1287 3.60057 48.1287C3.47242 48.1287 3.35037 48.1409 3.22832 48.1409C3.22832 48.049 3.22832 47.9633 3.22221 47.8714C3.35037 47.8714 3.47242 47.8836 3.60057 47.8836C27.6445 47.8836 47.6547 28.6652 51.9997 3.24087V3.23474ZM51.9997 0.0061492C50.4313 0.0061492 49.0888 1.13953 48.8264 2.68949C44.6706 26.9989 25.649 44.6428 3.60057 44.6428H3.52734C3.4358 44.6367 3.34426 44.6305 3.25273 44.6305H3.22221C2.36786 44.6305 1.55012 44.9736 0.945973 45.5801C0.329618 46.1989 -0.00602075 47.0321 8.17737e-05 47.902C8.17737e-05 47.9694 8.17737e-05 48.0368 8.17737e-05 48.1042V48.1716C0.0183893 49.9482 1.45858 51.3695 3.22221 51.3695H3.24662C3.33816 51.3695 3.4358 51.3695 3.52734 51.3634H3.60057C25.6429 51.3634 44.6644 69.0073 48.8203 93.3167C49.0888 94.8667 50.4252 96 51.9936 96C53.5619 96 54.9045 94.8667 55.1669 93.3167C59.3288 69.0012 78.3443 51.3573 100.393 51.3573C100.679 51.3573 100.96 51.3695 101.247 51.3818L101.662 51.394C101.699 51.394 101.729 51.394 101.766 51.394C102.596 51.394 103.395 51.0755 103.993 50.4935C104.616 49.8931 104.976 49.066 104.988 48.1961V48.0981C104.988 48.0184 104.994 47.9388 104.994 47.8591C105 46.9831 104.652 46.1376 104.024 45.5189C103.42 44.9246 102.614 44.5938 101.772 44.5938C101.741 44.5938 101.711 44.5938 101.674 44.5938C101.522 44.5938 101.375 44.606 101.223 44.6122C100.948 44.6244 100.667 44.6367 100.387 44.6367C78.3382 44.6367 59.3166 26.9928 55.1608 2.67724C54.8923 1.12727 53.5558 -0.00610352 51.9875 -0.00610352L51.9997 0.0061492Z" fill="#F5F5F5"/>
</g>
<defs>
<clipPath id="clip0_207_2502">
<rect width="105" height="96" fill="white"/>
</clipPath>
</defs>
</svg>
