<svg width="115" height="106" viewBox="0 0 115 106" fill="none" xmlns="http://www.w3.org/2000/svg">
<g clip-path="url(#clip0_207_2403)">
<path d="M56.952 3.74877C61.7175 31.5567 83.6334 52.5768 109.961 52.5768C110.469 52.5768 110.97 52.55 111.471 52.5366C111.471 52.6572 111.464 52.7711 111.464 52.8917C110.963 52.8783 110.469 52.8515 109.961 52.8515C83.6267 52.8515 61.7108 73.8716 56.952 101.68C52.1865 73.8716 30.2706 52.8515 3.94348 52.8515C3.80312 52.8515 3.66945 52.8649 3.53578 52.8649C3.53578 52.7644 3.53578 52.6706 3.52909 52.5701C3.66945 52.5701 3.80312 52.5835 3.94348 52.5835C30.2773 52.5835 52.1932 31.5634 56.952 3.75547V3.74877ZM56.952 0.217503C55.2343 0.217503 53.7639 1.45713 53.4765 3.15241C48.9249 29.7408 28.0917 49.0388 3.94348 49.0388H3.86328C3.76302 49.0321 3.66277 49.0254 3.56251 49.0254H3.52909C2.59337 49.0254 1.69775 49.4007 1.03607 50.064C0.36101 50.7408 -0.00659415 51.6521 8.95617e-05 52.6036C8.95617e-05 52.6773 8.95617e-05 52.751 8.95617e-05 52.8247V52.8984C0.0201407 54.8416 1.5975 56.3962 3.52909 56.3962H3.55583C3.65608 56.3962 3.76302 56.3962 3.86328 56.3895H3.94348C28.0851 56.3895 48.9182 75.6875 53.4698 102.276C53.7639 103.971 55.2276 105.211 56.9453 105.211C58.6631 105.211 60.1335 103.971 60.4209 102.276C64.9792 75.6808 85.8056 56.3828 109.954 56.3828C110.268 56.3828 110.575 56.3962 110.89 56.4096L111.344 56.423C111.384 56.423 111.418 56.423 111.458 56.423C112.367 56.423 113.242 56.0746 113.897 55.438C114.579 54.7813 114.973 53.8767 114.987 52.9252V52.818C114.987 52.7309 114.993 52.6438 114.993 52.5567C115 51.5985 114.619 50.6738 113.931 49.997C113.269 49.3471 112.387 48.9852 111.464 48.9852C111.431 48.9852 111.398 48.9852 111.357 48.9852C111.19 48.9852 111.03 48.9986 110.863 49.0053C110.562 49.0187 110.255 49.0321 109.947 49.0321C85.799 49.0321 64.9658 29.7341 60.4142 3.13901C60.1201 1.44373 58.6564 0.204102 56.9387 0.204102L56.952 0.217503Z" fill="#E8B20D"/>
</g>
<defs>
<clipPath id="clip0_207_2403">
<rect width="115" height="105" fill="white" transform="translate(0 0.210938)"/>
</clipPath>
</defs>
</svg>
