<svg width="75" height="69" viewBox="0 0 75 69" fill="none" xmlns="http://www.w3.org/2000/svg">
<g clip-path="url(#clip0_255_4173)">
<path d="M37.1426 2.32496C40.2506 20.5987 54.5435 34.4119 71.7134 34.4119C72.0447 34.4119 72.3716 34.3943 72.6985 34.3855C72.6985 34.4648 72.6942 34.5396 72.6942 34.6189C72.3673 34.6101 72.0447 34.5925 71.7134 34.5925C54.5392 34.5925 40.2462 48.4057 37.1426 66.6795C34.0347 48.4057 19.7417 34.5925 2.57184 34.5925C2.4803 34.5925 2.39312 34.6013 2.30594 34.6013C2.30594 34.5352 2.30594 34.4736 2.30158 34.4075C2.39312 34.4075 2.4803 34.4163 2.57184 34.4163C19.7461 34.4163 34.0391 20.6031 37.1426 2.32936V2.32496ZM37.1426 0.00441211C36.0224 0.00441211 35.0634 0.819026 34.876 1.93307C31.9075 19.4054 18.3207 32.087 2.57184 32.087H2.51953C2.45414 32.0826 2.38876 32.0782 2.32338 32.0782H2.30158C1.69133 32.0782 1.10723 32.3248 0.675695 32.7607C0.235441 33.2054 -0.00430053 33.8043 5.84098e-05 34.4296C5.84098e-05 34.478 5.84098e-05 34.5264 5.84098e-05 34.5749V34.6233C0.0131352 35.9003 1.04185 36.9218 2.30158 36.9218H2.31902C2.3844 36.9218 2.45414 36.9218 2.51953 36.9174H2.57184C18.3163 36.9174 31.9032 49.599 34.8716 67.0714C35.0634 68.1854 36.018 69 37.1383 69C38.2585 69 39.2175 68.1854 39.4049 67.0714C42.3777 49.5946 55.9602 36.913 71.7091 36.913C71.9139 36.913 72.1144 36.9218 72.3193 36.9306L72.6157 36.9394C72.6419 36.9394 72.6637 36.9394 72.6898 36.9394C73.2826 36.9394 73.8537 36.7105 74.2808 36.2922C74.7254 35.8606 74.9826 35.2662 74.9913 34.6409V34.5705C74.9913 34.5132 74.9957 34.456 74.9957 34.3987C75.0001 33.7691 74.7516 33.1614 74.3026 32.7167C73.8711 32.2895 73.2957 32.0518 72.6942 32.0518C72.6724 32.0518 72.6506 32.0518 72.6244 32.0518C72.5155 32.0518 72.4108 32.0606 72.3019 32.065C72.1057 32.0738 71.9052 32.0826 71.7047 32.0826C55.9558 32.0826 42.369 19.401 39.4006 1.92426C39.2088 0.810219 38.2542 -0.00439453 37.1339 -0.00439453L37.1426 0.00441211Z" fill="#0451DD"/>
</g>
<defs>
<clipPath id="clip0_255_4173">
<rect width="75" height="69" fill="white"/>
</clipPath>
</defs>
</svg>
