<svg width="112" height="113" viewBox="0 0 112 113" fill="none" xmlns="http://www.w3.org/2000/svg">
<rect y="0.210938" width="112" height="112" rx="56" fill="url(#paint0_linear_255_4275)"/>
<path d="M23.2929 55.5038C22.9024 55.8944 22.9024 56.5275 23.2929 56.918L29.6569 63.282C30.0474 63.6725 30.6805 63.6725 31.0711 63.282C31.4616 62.8915 31.4616 62.2583 31.0711 61.8678L25.4142 56.2109L31.0711 50.5541C31.4616 50.1636 31.4616 49.5304 31.0711 49.1399C30.6805 48.7493 30.0474 48.7493 29.6569 49.1399L23.2929 55.5038ZM88.7071 56.918C89.0976 56.5275 89.0976 55.8944 88.7071 55.5038L82.3431 49.1399C81.9526 48.7493 81.3195 48.7493 80.9289 49.1399C80.5384 49.5304 80.5384 50.1636 80.9289 50.5541L86.5858 56.2109L80.9289 61.8678C80.5384 62.2583 80.5384 62.8915 80.9289 63.282C81.3195 63.6725 81.9526 63.6725 82.3431 63.282L88.7071 56.918ZM25 57.2109C25.5523 57.2109 26 56.7632 26 56.2109C26 55.6587 25.5523 55.2109 25 55.2109V57.2109ZM31 55.2109C30.4477 55.2109 30 55.6587 30 56.2109C30 56.7632 30.4477 57.2109 31 57.2109V55.2109ZM33 57.2109C33.5523 57.2109 34 56.7632 34 56.2109C34 55.6587 33.5523 55.2109 33 55.2109V57.2109ZM39 55.2109C38.4477 55.2109 38 55.6587 38 56.2109C38 56.7632 38.4477 57.2109 39 57.2109V55.2109ZM41 57.2109C41.5523 57.2109 42 56.7632 42 56.2109C42 55.6587 41.5523 55.2109 41 55.2109V57.2109ZM47 55.2109C46.4477 55.2109 46 55.6587 46 56.2109C46 56.7632 46.4477 57.2109 47 57.2109V55.2109ZM49 57.2109C49.5523 57.2109 50 56.7632 50 56.2109C50 55.6587 49.5523 55.2109 49 55.2109V57.2109ZM55 55.2109C54.4477 55.2109 54 55.6587 54 56.2109C54 56.7632 54.4477 57.2109 55 57.2109V55.2109ZM57 57.2109C57.5523 57.2109 58 56.7632 58 56.2109C58 55.6587 57.5523 55.2109 57 55.2109V57.2109ZM63 55.2109C62.4477 55.2109 62 55.6587 62 56.2109C62 56.7632 62.4477 57.2109 63 57.2109V55.2109ZM65 57.2109C65.5523 57.2109 66 56.7632 66 56.2109C66 55.6587 65.5523 55.2109 65 55.2109V57.2109ZM71 55.2109C70.4477 55.2109 70 55.6587 70 56.2109C70 56.7632 70.4477 57.2109 71 57.2109V55.2109ZM73 57.2109C73.5523 57.2109 74 56.7632 74 56.2109C74 55.6587 73.5523 55.2109 73 55.2109V57.2109ZM79 55.2109C78.4477 55.2109 78 55.6587 78 56.2109C78 56.7632 78.4477 57.2109 79 57.2109V55.2109ZM81 57.2109C81.5523 57.2109 82 56.7632 82 56.2109C82 55.6587 81.5523 55.2109 81 55.2109V57.2109ZM87 55.2109C86.4477 55.2109 86 55.6587 86 56.2109C86 56.7632 86.4477 57.2109 87 57.2109V55.2109ZM24 57.2109H25V55.2109H24V57.2109ZM31 57.2109H33V55.2109H31V57.2109ZM39 57.2109H41V55.2109H39V57.2109ZM47 57.2109H49V55.2109H47V57.2109ZM55 57.2109H57V55.2109H55V57.2109ZM63 57.2109H65V55.2109H63V57.2109ZM71 57.2109H73V55.2109H71V57.2109ZM79 57.2109H81V55.2109H79V57.2109ZM87 57.2109H88V55.2109H87V57.2109Z" fill="white"/>
<defs>
<linearGradient id="paint0_linear_255_4275" x1="106" y1="-40.2891" x2="9" y2="139.711" gradientUnits="userSpaceOnUse">
<stop offset="0.0729167" stop-color="#4469C6"/>
<stop offset="0.348958" stop-color="#9E5A9F"/>
<stop offset="0.5625" stop-color="#E94D7E"/>
<stop offset="0.692708" stop-color="#FE728E"/>
<stop offset="0.838542" stop-color="#FF7076"/>
</linearGradient>
</defs>
</svg>
