<svg width="112" height="113" viewBox="0 0 112 113" fill="none" xmlns="http://www.w3.org/2000/svg">
<rect y="0.210938" width="112" height="112" rx="56" fill="url(#paint0_linear_255_4279)"/>
<path d="M78.8761 36.5757H65.9195C63.911 36.5757 62.2771 38.2703 62.2771 40.3534V43.0625H56.4701V37.7306C56.4701 33.7695 59.5713 30.5315 63.4115 30.5315H78.8865C79.5109 30.5315 80 30.0242 80 29.3766C80 28.729 79.5109 28.2217 78.8865 28.2217L63.4011 28.2109C58.3537 28.2109 54.2222 32.4743 54.2222 37.7306V44.2173C54.2222 44.8649 54.7113 45.3722 55.3358 45.3722H63.4011C64.0255 45.3722 64.5146 44.8649 64.5146 44.2173V40.3534C64.5146 39.5439 65.139 38.8963 65.9195 38.8963H78.8761C79.5005 38.8963 79.9896 38.389 79.9896 37.7414C79.9896 37.083 79.4797 36.5757 78.8761 36.5757Z" fill="white"/>
<path d="M64.8889 57.8266C64.8889 55.1724 60.8905 48.9169 60.0759 47.6887C59.8722 47.3764 59.497 47.1787 59.1111 47.1787C58.7252 47.1787 58.35 47.3764 58.1464 47.6887C57.3424 48.9169 53.3333 55.1724 53.3333 57.8266C53.3333 60.9075 55.9274 63.4367 59.1111 63.4367C62.2948 63.4367 64.8889 60.9075 64.8889 57.8266ZM55.638 57.8266C55.638 56.5984 57.4282 53.1532 59.1111 50.4157C60.7726 53.1636 62.5842 56.5984 62.5842 57.8266C62.5842 59.6793 61.0192 61.1989 59.1111 61.1989C57.2031 61.1989 55.638 59.6793 55.638 57.8266Z" fill="white"/>
<path d="M71.2334 74.9057L64.6419 74.7409H64.5795C63.2882 74.7409 61.9866 74.5761 60.737 74.2465C61.2473 73.7961 61.6742 73.2577 61.9866 72.5766C63.0591 70.1926 62.0803 67.3472 59.8207 66.2156L49.4284 61.0521C46.6169 59.6569 43.4409 59.4482 40.494 60.4369C40.4524 60.4589 40.4003 60.4589 40.3587 60.4809L32.653 64.2491C32.0907 64.5347 31.8512 65.2159 32.1219 65.8091C32.3927 66.4024 33.0383 66.6551 33.6006 66.3694L41.2438 62.6232C43.6388 61.8431 46.2004 62.0079 48.4809 63.1395L58.8731 68.303C60.0081 68.8633 60.5079 70.3025 59.9665 71.5329C59.4354 72.7634 58.0713 73.3237 56.9258 72.7634L49.6679 69.1599C49.1056 68.8743 48.4392 69.1379 48.1685 69.7202C47.8977 70.3135 48.1476 71.0166 48.6995 71.3022L56.7176 75.2682C59.1751 76.4987 61.9033 77.1359 64.6107 77.1359H64.6315L71.223 77.2787H71.2438C72.358 77.2787 73.2952 78.2455 73.3264 79.421V79.5199C73.3473 80.1571 73.1286 80.7503 72.7225 81.1897C72.3164 81.6402 71.7853 81.8709 71.2022 81.8929C70.0359 81.9148 67.9845 81.8929 65.8186 81.8929C63.5798 81.8709 61.2577 81.8709 59.8936 81.8929C57.2591 81.9368 54.6246 81.2996 52.2712 80.0582L42.4829 74.8507C41.0563 74.0927 39.4007 74.0268 37.922 74.6859C37.8803 74.7079 37.8595 74.7079 37.8075 74.7299L32.5801 77.7071C32.049 78.0148 31.8408 78.7398 32.1323 79.3111C32.4239 79.8714 33.1112 80.0911 33.6526 79.7835L38.8175 76.7843C39.6922 76.4327 40.6502 76.4767 41.4729 76.9052L51.2611 82.1126C53.9477 83.5298 56.9363 84.2549 59.9352 84.189C61.2785 84.167 63.5798 84.167 65.7874 84.189C67.0786 84.189 68.3386 84.2109 69.4111 84.2109C70.1296 84.2109 70.7544 84.2109 71.223 84.189C72.4101 84.167 73.5035 83.6506 74.3261 82.7498C75.1487 81.8489 75.5757 80.6514 75.5548 79.399V79.3111C75.4819 76.9161 73.5555 74.9276 71.2334 74.9057Z" fill="white"/>
<defs>
<linearGradient id="paint0_linear_255_4279" x1="106" y1="-40.2891" x2="9" y2="139.711" gradientUnits="userSpaceOnUse">
<stop offset="0.0729167" stop-color="#4469C6"/>
<stop offset="0.348958" stop-color="#9E5A9F"/>
<stop offset="0.5625" stop-color="#E94D7E"/>
<stop offset="0.692708" stop-color="#FE728E"/>
<stop offset="0.838542" stop-color="#FF7076"/>
</linearGradient>
</defs>
</svg>
