<svg width="112" height="113" viewBox="0 0 112 113" fill="none" xmlns="http://www.w3.org/2000/svg">
<rect y="0.210938" width="112" height="112" rx="56" fill="url(#paint0_linear_255_4284)"/>
<path d="M71.8824 56.858H39.2353M78.0588 60.3874L83.7292 57.7899C85.3049 57.065 85.9998 56.6542 85.9998 55.8205V51.2109L86 49.7109C86.1117 48.1886 85.4662 46.8801 84.2751 45.8773C83.5927 45.382 78.8529 45.1615 78.0588 45.4515M78.0588 45.4515C68.6776 45.3161 65.4184 43.3221 62.5309 41.5496C60.6101 40.1833 58.3422 39.371 55.9876 39.2109C53.6206 39.371 51.3528 40.1833 49.4319 41.5496C46.5568 43.3221 43.2976 45.3161 33.9412 45.4515M78.0588 45.4515L77.9969 60.0498C77.9721 64.6779 74.6385 67.5458 71.8377 69.1337C63.2868 73.9833 48.3662 73.9341 39.902 69.0352C37.1756 67.4474 33.9288 64.604 33.9536 60.0498L33.9412 45.4515M33.9412 45.4515C33.1258 45.1733 28.434 45.3766 27.744 45.8726C26.5397 46.8886 25.8999 48.3764 26.0128 49.9004V55.8273C26.0128 56.6619 26.7153 57.0732 28.3085 57.7989L28.5092 57.8957L33.9286 60.3874M39.2353 63.0345C44.703 64.2108 50.3356 64.8095 55.9937 64.799C61.6517 64.799 67.2843 64.2108 72.7647 63.0345M72.7647 51.5639C61.7658 48.0345 50.2342 48.0345 39.2353 51.5639" stroke="white" stroke-width="2" stroke-miterlimit="10" stroke-linecap="round"/>
<defs>
<linearGradient id="paint0_linear_255_4284" x1="106" y1="-40.2891" x2="9" y2="139.711" gradientUnits="userSpaceOnUse">
<stop offset="0.0729167" stop-color="#4469C6"/>
<stop offset="0.348958" stop-color="#9E5A9F"/>
<stop offset="0.5625" stop-color="#E94D7E"/>
<stop offset="0.692708" stop-color="#FE728E"/>
<stop offset="0.838542" stop-color="#FF7076"/>
</linearGradient>
</defs>
</svg>
