<svg width="25" height="25" viewBox="0 0 25 25" fill="none" xmlns="http://www.w3.org/2000/svg">
<path d="M12.063 2.06305C6.54299 2.06305 2.06299 6.54305 2.06299 12.063C2.06299 17.583 6.54299 22.063 12.063 22.063C17.583 22.063 22.063 17.583 22.063 12.063C22.063 6.54305 17.583 2.06305 12.063 2.06305ZM12.063 20.063C7.65299 20.063 4.06299 16.473 4.06299 12.063C4.06299 7.65305 7.65299 4.06305 12.063 4.06305C16.473 4.06305 20.063 7.65305 20.063 12.063C20.063 16.473 16.473 20.063 12.063 20.063ZM15.653 8.64305L11.063 13.233L8.47299 10.653L7.06299 12.063L11.063 16.063L17.063 10.063L15.653 8.64305Z" fill="#3CE7C1"/>
</svg>
